; NON-PLATED HOLES START AT T1
; THROUGH (PLATED) HOLES START AT T100
M48
INCH
T100C0.038417
T101C0.038000
T102C0.038445
%
T100
X016710Y001777
X015711Y001777
X013711Y001777
X012711Y001777
X017711Y001777
X010711Y001777
X024711Y001777
X019711Y001777
X020711Y001777
X011711Y001777
X014711Y001777
X022711Y001777
X023711Y001777
X021710Y001777
T101
X028111Y009777
X028111Y016777
X028111Y008777
X028111Y021777
X028111Y020777
X028111Y015777
X028111Y017777
T102
X014111Y020777
X020711Y020777
X015111Y020777
X023711Y020777
X019711Y020777
X016110Y020777
X011111Y020777
X017711Y020777
X013111Y020777
X021710Y020777
X022711Y020777
X009111Y020777
X012111Y020777
X018711Y020777
X024711Y020777
X007110Y020777
X010111Y020777
X008111Y020777
T00
M30
